<?xml version="1.0" encoding="utf-8"?>
<!-- Generator: Adobe Illustrator 27.0.0, SVG Export Plug-In . SVG Version: 6.00 Build 0)  -->
<svg version="1.1" id="图层_1" xmlns="http://www.w3.org/2000/svg" xmlns:xlink="http://www.w3.org/1999/xlink" x="0px" y="0px"
	 viewBox="0 0 566.93 566.93" style="enable-background:new 0 0 566.93 566.93;" xml:space="preserve">
<g>
	<path d="M290.71,392.04h-47.6l-33.76-62.42c-1.21-2.27-2.47-6.35-3.76-12.27h-0.49c-0.65,2.92-2.11,7.12-4.37,12.63l-33.88,62.05
		h-47.97l60.35-94.11l-55.13-93.99h48.82l28.05,57.56c2.27,4.7,4.21,9.88,5.83,15.54h0.49c1.7-5.1,3.76-10.48,6.19-16.15
		l30.97-56.95h44.81l-56.83,93.26L290.71,392.04z"/>
	<path d="M425.14,392.04H313.78v-188.1h106.98v32.79h-66.91v44.32h62.17v32.67h-62.17v45.54h71.28V392.04z"/>
</g>
</svg>
